<?xml version="1.0" encoding="UTF-8" standalone="no"?>
<svg width="19px" height="19px" viewBox="0 0 19 19" version="1.1" xmlns="http://www.w3.org/2000/svg" xmlns:xlink="http://www.w3.org/1999/xlink">
    <!-- Generator: Sketch 3.8.3 (29802) - http://www.bohemiancoding.com/sketch -->
    <title>Combined Shape</title>
    <desc>Created with Sketch.</desc>
    <defs></defs>
    <g id="Page-1" stroke="none" stroke-width="1" fill="none" fill-rule="evenodd">
        <path d="M13.2145195,11.5931991 C14.9529498,8.88367042 14.6373656,5.23787071 12.267767,2.86827202 C9.53409691,0.134601974 5.10194206,0.134601974 2.36827202,2.86827202 C-0.365398026,5.60194206 -0.365398026,10.0340969 2.36827202,12.767767 C4.73787071,15.1373656 8.38367042,15.4529498 11.0931991,13.7145195 L15.8065553,18.4278756 C16.1882043,18.8095246 16.8266598,18.8154758 17.2167766,18.425359 L17.925359,17.7167766 C18.3187199,17.3234158 18.3166025,16.6952822 17.9278756,16.3065553 L13.2145195,11.5931991 Z M10.1464466,10.6464466 C8.58434944,12.2085438 6.05168953,12.2085438 4.48959236,10.6464466 C2.92749519,9.08434944 2.92749519,6.55168953 4.48959236,4.98959236 C6.05168953,3.42749519 8.58434944,3.42749519 10.1464466,4.98959236 C11.7085438,6.55168953 11.7085438,9.08434944 10.1464466,10.6464466 Z" id="Combined-Shape" fill="#979797"></path>
    </g>
</svg>