<svg xmlns="http://www.w3.org/2000/svg" viewBox="0 0 136.6 145.4"><path fill="#1c1c1c" d="M121.9 65c-2.2-.2-3.9.2-3.9.2l-4.3.6 3.1-7.2c2.3-5.3 3.2-10.9 2.9-16.2-.6-15-10.8-24.7-20.4-28h-.1c-1.7-.6-3.3-.9-4.9-1.1-14.1-1.9-29.4 6.4-35.6 21l-4.1 9.4c-.3.8-.6 1.5-.9 2.3l-5.1 11.9c-2.4 5.8-8.7 8.6-13.9 6.4-5.3-2.2-7.6-8.7-5.1-14.5l9.9-23.5 1.6-3.8c.1-.2.2-.5.3-.7l.1-.2c.2-.7.4-1.4.5-2.2v-.1c0-.3.1-.7.1-1.1v-1c0-.2 0-.4-.1-.5v-.3c-.8-4.9-5-8.6-10.2-8.6-4.2 0-7.8 2.5-9.4 6l-.1.2c0 .1-.1.1-.1.2l-1.6 3.9-9.1 21.4c-7.3 17.6-.5 37 15.3 43.7 9.7 4.1 20.1 2.7 28.7-3.3l.3-.2C54 77.6 50.4 70 52 61.2c0 0-.1 3.1 2 8.2.7 2 1.7 3.9 2.8 5.7 3.8 6 10.3 11.7 17.4 13.3 1.6.4 3.9.8 6 .8l-1.1 2.3-8.7 18.9c-2.4 5.8-8.7 8.6-14 6.4-5-2.1-7.5-8.5-5.2-13.8 0 0 .6-1.4 1-3 .1-.5.3-.9.3-1.4.1-.4.1-.8.2-1.1v-.6c0-5.7-4.6-10.3-10.3-10.3-1.2 0-2.4.2-3.5.6-.1 0-.1 0-.2.1l-.6.3c-.1 0-.2.1-.3.2-.2.1-.3.2-.5.2-.1.1-.3.2-.4.2-.1.1-.3.2-.4.3l-.1.1c-1.4 1-2.5 2.3-3.2 3.8 0 .1-.1.1-.1.2-.1.2-.2.3-.2.5-.3.6-.5 1.2-.6 1.9-2 6.1-2.4 13.2-.9 19.5 1.3 5.7 4.1 11.2 8.4 15.2 5.6 5.1 12.2 7.8 19.8 7.8 9.7 0 18.6-3.8 24.8-11.3 2.5-3 4.4-6.2 6-9.7l12.3-27s5.1-11.8 7.2-16.2c0 0-1.5 8.1-3.6 15.7 5-.7 12.6-2.1 16.6-3.3 0 0 1.6-.3 3.3-1.4 3-1.8 5.1-5.1 5.1-8.9 0-5.5-4.1-10-9.4-10.4zM98.3 49.5l-5.6 12.7-3.9 8.2c-3.2.3-7.9-.1-11.2-1.9-.7-.4-1.5-.9-2.1-1.4-2.5-2.1-4.1-5.4-5.2-8.5-1.4-4.2-1.8-8.8-1-13.2 0 0-.1 3.1 2 8.2.2.6.5 1.2.7 1.8L78.3 41l.3-.7c.3-.7.7-1.4 1.1-1.9 1.9-3.1 5.3-5.1 9.2-5.1 6 0 10.9 4.9 10.9 10.9-.1 1.9-.7 3.5-1.5 5.3z"/></svg>